<svg width="23" height="15" viewBox="0 0 23 15" fill="none" xmlns="http://www.w3.org/2000/svg">
<path d="M8.20996 0C8.96241 -0.000925999 8.96279 -0.000640243 9.30957 0.0458984C9.32332 0.0477419 9.3374 0.0498587 9.35156 0.0517578C9.43382 0.0629203 9.51589 0.0755406 9.59766 0.0898438C9.63426 0.0962293 9.63442 0.0960046 9.67188 0.102539C9.89294 0.142977 10.1066 0.20035 10.3203 0.269531C10.3712 0.286008 10.4225 0.301658 10.4736 0.317383C11.38 0.605915 12.2439 1.20108 12.8262 1.9541C12.8415 1.97285 12.8563 1.9924 12.8721 2.01172C13.3314 2.58505 13.615 3.26154 13.8105 3.96387C13.8152 3.98023 13.8194 3.99681 13.8242 4.01367C14.0168 4.70576 14.0269 5.43865 14.0234 6.15137C14.023 6.26722 14.0224 6.38317 14.0225 6.49902C14.0225 6.69889 14.0221 6.89876 14.0215 7.09863C14.0207 7.38767 14.0206 7.67679 14.0205 7.96582C14.0203 8.4349 14.0195 8.90397 14.0186 9.37305C14.0176 9.82821 14.017 10.2841 14.0166 10.7393V11.2061C14.0163 11.4941 14.0159 11.7822 14.0156 12.0703C14.0156 12.1099 14.0157 12.1101 14.0156 12.1504C14.0147 13.0178 14.0134 13.8856 14.0117 14.7529C13.6919 14.7633 13.3717 14.7706 13.0518 14.7754C12.9033 14.7777 12.7549 14.781 12.6064 14.7861C12.4767 14.7906 12.3466 14.793 12.2168 14.7939C12.1483 14.7945 12.0801 14.7965 12.0117 14.7998C11.753 14.8108 11.5376 14.8104 11.3389 14.6289C11.2369 14.5301 11.1465 14.421 11.0576 14.3105C11.0314 14.28 11.0051 14.249 10.9785 14.2188C10.9679 14.2066 10.9573 14.1942 10.9463 14.1816C10.9075 14.1383 10.8666 14.0974 10.8252 14.0566C10.8091 14.0407 10.793 14.0243 10.7764 14.0078C10.76 13.9917 10.7434 13.9756 10.7266 13.959C10.6243 13.8584 10.5251 13.7573 10.4316 13.6484C10.3596 13.5676 10.2812 13.4929 10.2041 13.417C10.1019 13.3164 10.0026 13.2152 9.90918 13.1064C9.83712 13.0256 9.75882 12.95 9.68164 12.874C9.57941 12.7734 9.48016 12.6723 9.38672 12.5635C9.3147 12.4826 9.23631 12.4079 9.15918 12.332C9.05699 12.2315 8.95766 12.1303 8.86426 12.0215C8.79219 11.9406 8.7139 11.865 8.63672 11.7891C8.45404 11.6093 8.45352 11.609 8.38086 11.5234C8.37016 11.5116 8.35966 11.4995 8.34863 11.4873C8.32529 11.4604 8.30164 11.4337 8.28027 11.4053C8.1829 11.2759 8.08412 11.1588 7.91797 11.1309C7.79072 11.1191 7.6637 11.1235 7.53613 11.127C7.48853 11.1272 7.44019 11.127 7.39258 11.127C7.2676 11.1272 7.14253 11.1286 7.01758 11.1309C6.81935 11.1341 6.6211 11.1357 6.42285 11.1367C6.37479 11.137 6.32638 11.1373 6.27832 11.1377C4.8393 11.149 3.3796 10.7921 2.25781 9.85059C2.24758 9.84213 2.2371 9.8339 2.22656 9.8252C1.9643 9.60826 1.72474 9.37583 1.51465 9.10742C1.50208 9.09243 1.4895 9.07696 1.47656 9.06152C1.25334 8.79357 1.07225 8.49158 0.912109 8.18262C0.904432 8.16781 0.896582 8.15295 0.888672 8.1377C0.750481 7.8673 0.647534 7.58594 0.549805 7.29883C0.544439 7.28343 0.539708 7.26781 0.53418 7.25195C0.344428 6.70605 0.284364 6.10224 0.285156 5.52734C0.285168 5.51146 0.285144 5.49488 0.285156 5.47852C0.286069 5.04682 0.323078 4.62633 0.399414 4.20117C0.405747 4.16588 0.412034 4.13009 0.417969 4.09473C0.565107 3.2224 0.988012 2.42349 1.55469 1.75391C1.57011 1.73559 1.58567 1.71711 1.60156 1.69824C2.34897 0.839907 3.46616 0.318479 4.56836 0.106445C4.58254 0.103666 4.59672 0.100519 4.61133 0.0976562C5.11486 0.000778548 5.62021 -0.000727965 6.13086 0H8.20996ZM6.23535 2.63281C5.83538 2.63174 5.44246 2.63017 5.0498 2.71875C5.02862 2.72383 5.00786 2.72846 4.9873 2.7334C4.38619 2.87585 3.84703 3.14766 3.44727 3.62793C2.93216 4.26648 2.79428 5.12002 2.87402 5.91992C2.9635 6.65617 3.30708 7.30206 3.89062 7.76074C3.909 7.7746 3.92747 7.78831 3.94531 7.80176C4.32179 8.08901 4.79064 8.26324 5.24902 8.36719C5.27939 8.3738 5.27998 8.37344 5.30957 8.37988C5.66822 8.45949 6.03742 8.46959 6.40332 8.4707C6.47914 8.47076 6.55504 8.47038 6.63086 8.4707C6.83652 8.47177 7.04239 8.47315 7.24805 8.47363C7.39941 8.47397 7.55078 8.47379 7.70215 8.47461C7.75466 8.47491 7.80784 8.47535 7.86035 8.47559C8.05951 8.47558 8.26062 8.46974 8.45898 8.49023C8.97793 8.56034 9.56276 8.80785 9.89941 9.22656C9.92514 9.25885 9.95181 9.29078 9.97852 9.32227C10.1482 9.52096 10.3158 9.72232 10.4785 9.92676C10.5462 10.0126 10.6156 10.0964 10.6875 10.1787C10.7741 10.2776 10.8606 10.3768 10.9414 10.4805C11.0171 10.5782 11.0938 10.6753 11.1738 10.7695C11.1895 10.7879 11.1895 10.7884 11.2051 10.8066C11.2733 10.8866 11.3444 10.9619 11.4189 11.0361C11.4198 10.3301 11.4205 9.62396 11.4209 8.91797V8.61035C11.4211 8.3353 11.4215 8.06021 11.4219 7.78516C11.4223 7.50169 11.4228 7.21804 11.4229 6.93457C11.4229 6.76009 11.4225 6.58561 11.4229 6.41113C11.4231 6.29048 11.4238 6.16948 11.4238 6.04883V5.56152C11.4217 5.28512 11.407 5.0092 11.3359 4.74023C11.3307 4.72178 11.3263 4.70346 11.3213 4.68555C11.2425 4.38556 11.1168 4.10972 10.9492 3.84863C10.5214 3.21102 9.8456 2.86082 9.1123 2.70215C9.09516 2.69857 9.07817 2.69488 9.06152 2.69141C8.82608 2.64143 8.58468 2.6356 8.34473 2.63477H7.85547C7.68812 2.63458 7.51989 2.63378 7.35254 2.63379C7.19668 2.6338 7.04062 2.6341 6.88477 2.63379C6.74935 2.63351 6.61393 2.63283 6.47852 2.63281C6.39765 2.63282 6.31621 2.63299 6.23535 2.63281Z" fill="black"/>
<path d="M15.5983 0.289062C16.4801 0.289062 17.3619 0.289062 18.2704 0.289062C18.2708 0.785949 18.2708 0.785949 18.2713 1.29287C18.2715 1.51406 18.2717 1.73525 18.2719 1.95644C18.2719 1.97049 18.272 1.98454 18.272 1.99902C18.2724 2.47203 18.273 2.94504 18.2736 3.41805C18.2736 3.43349 18.2736 3.44893 18.2737 3.46483C18.2741 3.80032 18.2745 4.1358 18.275 4.47129C18.2752 4.63581 18.2755 4.80033 18.2757 4.96485C18.2757 4.98123 18.2757 4.9976 18.2757 5.01447C18.2765 5.54512 18.277 6.07577 18.2774 6.60643C18.2778 7.15175 18.2785 7.69706 18.2793 8.24238C18.2795 8.31941 18.2796 8.39643 18.2797 8.47346C18.2797 8.49619 18.2797 8.49619 18.2798 8.51939C18.2802 8.76341 18.2803 9.00743 18.2804 9.25144C18.2805 9.49677 18.2808 9.74209 18.2814 9.98741C18.2817 10.1203 18.2818 10.2533 18.2818 10.3862C18.2817 10.5079 18.2819 10.6295 18.2823 10.7512C18.2824 10.7952 18.2824 10.8393 18.2823 10.8833C18.2822 10.9432 18.2824 11.003 18.2828 11.0629C18.2826 11.0799 18.2825 11.097 18.2824 11.1146C18.2848 11.3554 18.3803 11.5873 18.5416 11.7662C18.6991 11.9142 18.9099 12.0043 19.1246 12.0055C19.1443 12.0056 19.1443 12.0056 19.1644 12.0058C19.2083 12.0061 19.2522 12.0063 19.2961 12.0064C19.3275 12.0066 19.359 12.0068 19.3905 12.007C19.476 12.0076 19.5614 12.008 19.6469 12.0084C19.7362 12.0088 19.8255 12.0094 19.9149 12.0099C20.084 12.0109 20.2531 12.0118 20.4223 12.0127C20.6508 12.0139 20.8794 12.0152 21.1079 12.0165C21.468 12.0186 21.8281 12.0205 22.1882 12.0224C22.1882 12.9241 22.1882 13.8258 22.1882 14.7548C21.2926 14.7564 21.2926 14.7564 20.9164 14.7568C20.657 14.757 20.3975 14.7573 20.1381 14.7578C19.9491 14.7582 19.7602 14.7585 19.5712 14.7586C19.4712 14.7586 19.3712 14.7588 19.2713 14.7591C19.177 14.7593 19.0827 14.7594 18.9884 14.7594C18.954 14.7594 18.9195 14.7594 18.8851 14.7596C18.6197 14.7607 18.365 14.7412 18.1072 14.6719C18.0913 14.6677 18.0754 14.6634 18.0591 14.659C17.5244 14.5093 17.0631 14.2341 16.6631 13.8507C16.6459 13.8348 16.6287 13.8188 16.611 13.8024C16.3575 13.5603 16.1584 13.2785 16.0001 12.9667C15.9896 12.9462 15.9896 12.9462 15.9788 12.9253C15.8256 12.6234 15.7224 12.3145 15.6585 11.9822C15.6511 11.9499 15.6436 11.9177 15.6359 11.8855C15.6019 11.7316 15.5953 11.5785 15.5958 11.4213C15.5958 11.402 15.5957 11.3827 15.5957 11.3627C15.5957 11.298 15.5958 11.2333 15.5958 11.1686C15.5958 11.1217 15.5958 11.0748 15.5958 11.0279C15.5958 10.9126 15.5958 10.7974 15.5959 10.6821C15.596 10.5439 15.596 10.4058 15.596 10.2676C15.5959 10.0127 15.596 9.75781 15.5961 9.5029C15.5963 9.25053 15.5963 8.99817 15.5964 8.74581C15.5964 8.73011 15.5964 8.71441 15.5964 8.69824C15.5964 8.61852 15.5964 8.5388 15.5964 8.45908C15.5964 7.89458 15.5966 7.33008 15.5967 6.76558C15.5969 6.21721 15.5971 5.66884 15.5972 5.12047C15.5972 5.10356 15.5972 5.08666 15.5972 5.06924C15.5972 4.89946 15.5972 4.72968 15.5972 4.5599C15.5973 4.21404 15.5974 3.86819 15.5974 3.52234C15.5974 3.50643 15.5974 3.49053 15.5974 3.47415C15.5975 2.9868 15.5976 2.49944 15.5977 2.01209C15.5978 1.99134 15.5978 1.99134 15.5978 1.97017C15.5979 1.4098 15.5981 0.84943 15.5983 0.289062Z" fill="black"/>
</svg>
